<svg width="376" height="122" viewBox="0 0 376 122" fill="none" xmlns="http://www.w3.org/2000/svg">
<path d="M372.851 32.4663H353.578V120.308H372.851V32.4663Z" fill="#121212"/>
<path d="M342.517 32.4663H323.545V11.4236H304.272V32.4663H285.3V50.9688H304.272V120.308H323.545V50.9688H342.517V32.4663Z" fill="#121212"/>
<path d="M187.577 32.4662V39.7071C180.406 34.1764 171.575 30.876 161.983 30.876C138.07 30.876 118.688 51.1786 118.688 76.2319C118.688 101.285 138.07 121.588 161.983 121.588C171.575 121.588 180.396 118.287 187.577 112.757V120.308H206.849V32.4662H187.577ZM164.364 102.645C150.652 102.645 139.5 90.5938 139.5 76.2319C139.5 61.87 151.192 50.2685 164.664 49.9385C178.105 50.2685 188.997 62.07 188.997 76.2319C188.997 90.3937 178.065 102.645 164.364 102.645Z" fill="#121212"/>
<path d="M270.148 30.636C260.426 30.636 252.155 33.9564 244.774 39.1571V32.4562H225.502V120.298H244.774V67.8308C246.374 56.2393 256.376 52.3488 267.797 52.3488C269.187 52.3488 271.948 52.6889 273.278 52.8989L277.038 31.3161C275.898 31.136 271.758 30.626 270.138 30.626L270.148 30.636Z" fill="#121212"/>
<path d="M363.22 25.4154C370.124 25.4154 375.721 19.8182 375.721 12.9137C375.721 6.00928 370.124 0.412109 363.22 0.412109C356.315 0.412109 350.718 6.00928 350.718 12.9137C350.718 19.8182 356.315 25.4154 363.22 25.4154Z" fill="#121212"/>
<path d="M97.9352 9.20326C90.4942 3.29249 81.6131 0.422119 72.8019 0.422119C60.7403 0.422119 56.5698 5.6728 41.1778 5.6728C30.8364 5.6728 11.8639 4.0426 3.68287 1.05221L0.55249 19.4446C7.5434 22.085 18.1648 25.0653 40.5077 25.0653C59.1301 25.0653 63.2207 19.9247 72.9419 19.9247C81.253 20.3647 91.3843 26.2955 91.3843 40.9474C91.3843 55.5993 79.4428 61.4901 71.0917 61.9402H49.7889V32.4763H28.9762V120.318H49.7889V81.3227H72.7719C84.6735 81.3227 96.455 76.082 104.436 66.0407C118.338 48.5484 115.417 23.1051 97.9352 9.21326V9.20326Z" fill="#121212"/>
</svg>
